<svg xmlns="http://www.w3.org/2000/svg" fill="#ffffff" viewBox="0 0 20 20">
  <path fill-rule="nonzero" d="M10 20C8.62 20 7.32 19.74 6.1 19.21C4.88 18.69 3.83 17.98 2.92 17.08C2.02 16.18 1.31 15.12 0.79 13.9C0.26 12.68 0 11.38 0 10C0 8.62 0.26 7.32 0.79 6.1C1.31 4.88 2.02 3.83 2.92 2.92C3.83 2.02 4.88 1.31 6.1 0.79C7.32 0.26 8.62 0 10 0C11.38 0 12.68 0.26 13.9 0.79C15.12 1.31 16.18 2.02 17.08 2.92C17.98 3.83 18.69 4.88 19.21 6.1C19.74 7.32 20 8.62 20 10C20 11.38 19.74 12.68 19.21 13.9C18.69 15.12 17.98 16.18 17.08 17.08C16.18 17.98 15.12 18.69 13.9 19.21C12.68 19.74 11.38 20 10 20ZM10 18C12.23 18 14.12 17.23 15.68 15.68C17.23 14.12 18 12.23 18 10C18 7.77 17.23 5.88 15.68 4.33C14.12 2.78 12.23 2 10 2C7.77 2 5.88 2.78 4.33 4.33C2.78 5.88 2 7.77 2 10C2 12.23 2.78 14.12 4.33 15.68C5.88 17.23 7.77 18 10 18ZM8 14L12 14C12.28 14 12.52 13.9 12.71 13.71C12.9 13.52 13 13.28 13 13L13 12C13 11.72 12.9 11.48 12.71 11.29C12.52 11.1 12.28 11 12 11C11.72 11 11.48 11.1 11.29 11.29C11.1 11.48 11 11.72 11 12L9 12L9 8L11 8C11 8.28 11.1 8.52 11.29 8.71C11.48 8.9 11.72 9 12 9C12.28 9 12.52 8.9 12.71 8.71C12.9 8.52 13 8.28 13 8L13 7C13 6.72 12.9 6.48 12.71 6.29C12.52 6.1 12.28 6 12 6L8 6C7.72 6 7.48 6.1 7.29 6.29C7.1 6.48 7 6.72 7 7L7 13C7 13.28 7.1 13.52 7.29 13.71C7.48 13.9 7.72 14 8 14Z" />
</svg>
