<svg xmlns="http://www.w3.org/2000/svg" viewBox="0 0 64 64"><rect width="64" height="64" rx="14" fill="#e76c1f"/><g transform="translate(9.6 7.5) scale(1.4)" fill="#fff"><path fill-rule="nonzero" d="M2.27 35C1.68 35 1.2 34.77 0.85 34.32C0.49 33.87 0.39 33.37 0.53 32.81L7.22 6.56L7.13 5.34C7.1 4.84 6.92 4.41 6.6 4.05C6.27 3.68 5.85 3.5 5.35 3.5C4.84 3.5 4.42 3.67 4.08 4C3.74 4.34 3.57 4.75 3.57 5.25L3.57 7C3.57 7.5 3.39 7.91 3.05 8.25C2.71 8.58 2.29 8.75 1.78 8.75C1.28 8.75 0.85 8.58 0.51 8.25C0.17 7.91 0 7.5 0 7L0 5.25C0 3.79 0.52 2.55 1.56 1.53C2.6 0.51 3.86 0 5.35 0L25.04 0C26.47 0 27.7 0.47 28.72 1.42C29.75 2.37 30.3 3.54 30.39 4.94L32 33.16C32.03 33.66 31.86 34.09 31.51 34.45C31.15 34.82 30.72 35 30.21 35L2.27 35ZM4.63 31.5L8.78 31.5L7.93 18.2L4.63 31.5ZM12.39 31.5L28.34 31.5L26.83 5.16C26.8 4.7 26.61 4.3 26.27 3.98C25.93 3.66 25.52 3.5 25.04 3.5L10.38 3.5C10.5 3.79 10.58 4.08 10.61 4.35C10.64 4.63 10.67 4.93 10.7 5.25L12.39 31.5ZM19.16 28C19.55 28 19.87 27.88 20.12 27.63C20.37 27.38 20.5 27.07 20.5 26.69L20.5 21C21.27 20.83 21.91 20.42 22.42 19.8C22.92 19.17 23.17 18.45 23.17 17.63L23.17 11.38C23.17 11.14 23.08 10.94 22.91 10.76C22.73 10.59 22.52 10.5 22.28 10.5C22.04 10.5 21.84 10.59 21.66 10.76C21.48 10.94 21.39 11.14 21.39 11.38L21.39 17.11L20.05 17.11L20.05 11.38C20.05 11.14 19.96 10.94 19.79 10.76C19.61 10.59 19.4 10.5 19.16 10.5C18.92 10.5 18.72 10.59 18.54 10.76C18.36 10.94 18.27 11.14 18.27 11.38L18.27 17.11L16.93 17.11L16.93 11.38C16.93 11.14 16.84 10.94 16.67 10.76C16.49 10.59 16.28 10.5 16.04 10.5C15.81 10.5 15.6 10.59 15.42 10.76C15.24 10.94 15.15 11.14 15.15 11.38L15.15 17.63C15.15 18.45 15.4 19.17 15.91 19.8C16.41 20.42 17.05 20.83 17.83 21L17.83 26.69C17.83 27.07 17.95 27.38 18.2 27.63C18.46 27.88 18.78 28 19.16 28Z"/></g></svg>